<?xml version="1.0" standalone="no"?>
<!DOCTYPE svg PUBLIC "-//W3C//DTD SVG 20010904//EN"
 "http://www.w3.org/TR/2001/REC-SVG-20010904/DTD/svg10.dtd">
<svg version="1.0" xmlns="http://www.w3.org/2000/svg"
 width="1554.000000pt" height="294.000000pt" viewBox="0 0 1554.000000 294.000000"
 preserveAspectRatio="xMidYMid meet">
<g transform="translate(0.000000,294.000000) scale(0.100000,-0.100000)"
fill="#ffffff" stroke="none">
<path d="M4660 2573 c-95 -9 -330 -118 -402 -186 -13 -12 -43 -39 -68 -59 -63
-50 -135 -121 -206 -203 -74 -84 -232 -296 -258 -345 -10 -19 -33 -57 -51 -85
-80 -124 -286 -530 -375 -740 -5 -11 -22 -50 -39 -88 -17 -37 -31 -73 -31 -80
0 -14 -38 -126 -48 -142 -13 -20 -33 -82 -47 -149 -15 -68 -15 -71 5 -90 20
-20 34 -21 291 -24 241 -3 276 -1 321 15 47 16 108 74 108 101 0 58 128 341
313 692 169 321 389 594 540 672 56 28 144 27 210 -2 94 -42 221 -181 389
-427 26 -37 66 -96 90 -131 119 -173 370 -499 467 -607 139 -154 300 -297 399
-353 190 -107 336 -142 599 -142 187 0 257 12 363 63 264 127 440 303 640 642
122 205 280 552 280 613 0 29 27 119 41 137 9 12 41 109 64 195 9 36 23 81 30
100 7 19 21 71 31 115 30 140 53 227 63 239 5 6 12 40 15 76 9 89 2 97 -104
110 -110 14 -565 0 -580 -17 -4 -4 -15 -53 -25 -108 -113 -626 -466 -1346
-719 -1470 -142 -69 -322 -5 -524 189 -95 91 -151 158 -271 326 -46 63 -91
126 -101 140 -10 14 -51 70 -92 125 -269 367 -432 563 -576 688 -155 136 -336
202 -577 211 -66 2 -140 2 -165 -1z"/>
<path d="M8673 2503 c-20 -3 -37 -12 -44 -25 -19 -36 -31 -628 -26 -1303 5
-641 11 -753 42 -784 20 -21 219 -30 645 -30 392 0 666 11 698 28 38 21 46 62
38 226 -3 85 -9 181 -12 213 l-7 60 -226 6 c-265 8 -425 23 -463 42 -55 29
-60 173 -8 229 28 30 70 35 357 44 218 7 245 10 264 27 20 18 21 26 17 209 -4
221 -11 248 -68 253 -19 1 -78 9 -131 17 -53 8 -130 15 -171 15 -42 0 -115 7
-164 15 -72 12 -93 20 -111 41 -33 36 -31 97 2 129 31 28 60 31 393 45 336 15
332 11 332 278 0 187 -9 229 -52 254 -18 10 -148 13 -648 14 -344 1 -640 -1
-657 -3z"/>
<path d="M11395 2499 c-16 -5 -52 -13 -80 -18 -27 -5 -86 -22 -130 -38 -163
-61 -286 -137 -398 -249 -159 -157 -262 -361 -308 -609 -16 -89 -17 -261 -1
-345 22 -114 72 -273 102 -322 11 -18 24 -42 29 -54 47 -105 210 -280 343
-367 48 -31 89 -57 92 -57 3 0 34 -13 68 -28 91 -41 123 -51 222 -73 123 -26
345 -26 476 0 91 19 174 44 195 60 5 4 34 18 63 30 168 70 392 284 473 451 12
25 29 61 37 80 8 19 19 43 24 53 25 51 48 155 59 269 18 190 -5 404 -56 523
-32 75 -88 190 -94 195 -3 3 -24 32 -46 64 -106 158 -311 315 -485 371 -30 9
-70 24 -88 31 -18 8 -43 14 -55 14 -12 0 -44 7 -71 15 -56 17 -320 20 -371 4z
m331 -636 c81 -27 128 -62 172 -128 72 -109 87 -164 87 -320 0 -133 -12 -190
-58 -275 -59 -111 -149 -173 -276 -191 -187 -28 -366 48 -431 182 -12 24 -26
52 -31 61 -5 10 -9 26 -9 37 0 10 -7 35 -15 54 -10 24 -15 70 -15 132 0 62 5
108 15 132 8 19 15 43 15 52 0 30 58 139 92 171 93 90 142 108 294 109 78 1
125 -4 160 -16z"/>
<path d="M13370 2500 c-19 -4 -57 -13 -85 -18 -27 -6 -75 -21 -105 -32 -30
-12 -64 -24 -75 -27 -11 -3 -39 -19 -63 -34 -24 -16 -47 -29 -52 -29 -19 0
-147 -138 -181 -195 -54 -93 -69 -160 -69 -317 0 -106 4 -148 19 -195 36 -112
121 -219 239 -300 63 -43 183 -103 206 -103 7 0 17 -5 23 -11 6 -6 60 -28 119
-48 60 -21 118 -42 129 -48 11 -6 56 -26 100 -44 114 -46 155 -89 155 -161 0
-39 -22 -67 -71 -92 -66 -34 -158 4 -192 79 -10 22 -24 51 -30 65 l-13 25
-329 2 c-189 1 -336 -2 -347 -8 -14 -8 -16 -18 -12 -62 27 -258 209 -470 494
-572 198 -71 585 -75 755 -8 80 31 184 87 217 116 18 16 40 34 48 41 46 35
119 141 148 216 48 127 67 306 38 375 -9 21 -16 44 -16 51 0 60 -134 228 -230
290 -84 54 -180 103 -248 128 -86 31 -290 114 -312 127 -8 5 -36 18 -61 29
-26 12 -61 37 -80 56 -29 30 -33 40 -32 85 1 73 24 94 103 94 72 -1 100 -23
129 -99 l19 -51 348 -3 c195 -1 352 2 357 7 11 11 -17 168 -44 241 -11 30 -31
69 -45 87 -13 17 -24 35 -24 40 0 16 -124 129 -187 171 -63 42 -94 56 -208 92
-127 40 -199 50 -351 49 -82 -1 -165 -5 -184 -9z"/>
<path d="M317 2488 c-38 -8 -51 -16 -59 -37 -17 -45 0 -158 47 -306 7 -22 20
-85 30 -140 9 -55 28 -145 42 -200 58 -234 115 -475 158 -675 57 -267 136
-577 170 -670 29 -79 3 -74 407 -75 399 0 412 2 447 59 10 17 26 74 35 126 29
158 47 252 61 315 8 33 21 94 29 135 8 41 22 113 32 160 24 121 68 197 109
188 18 -3 55 -102 55 -148 0 -61 35 -253 61 -334 16 -49 29 -103 29 -120 1
-47 37 -236 53 -276 7 -19 21 -52 31 -73 l16 -37 400 0 c448 0 409 -7 429 76
5 22 20 82 33 134 14 52 33 133 43 180 9 47 23 101 30 120 6 19 20 76 29 125
10 50 24 116 32 147 8 32 14 67 14 78 0 10 6 34 14 52 8 18 21 67 29 108 38
186 49 237 58 259 6 13 21 80 35 149 13 68 34 157 45 196 11 39 24 90 29 114
5 24 12 48 16 53 11 18 33 209 28 238 -11 53 -34 68 -121 74 -318 25 -487 17
-545 -26 -35 -26 -43 -57 -58 -222 -7 -71 -18 -164 -25 -205 -34 -189 -63
-405 -74 -545 -9 -109 -25 -169 -44 -162 -16 5 -64 106 -86 177 -27 92 -32
114 -46 215 -8 50 -24 128 -37 175 -13 47 -32 130 -42 185 -34 192 -98 397
-130 417 -6 4 -155 8 -331 8 -256 -1 -324 -3 -338 -14 -17 -13 -87 -201 -87
-234 0 -8 -7 -35 -14 -61 -8 -25 -22 -100 -31 -166 -17 -129 -41 -259 -58
-314 -5 -19 -20 -78 -32 -130 -27 -119 -69 -211 -95 -211 -34 0 -34 -2 -86
360 -9 58 -22 143 -29 190 -31 189 -38 240 -45 350 -4 63 -13 126 -19 140 -19
39 -71 67 -149 79 -86 13 -429 12 -495 -1z"/>
<path d="M14785 963 c-130 -40 -199 -93 -244 -188 -52 -109 -42 -208 30 -323
22 -35 110 -98 163 -116 69 -23 265 -22 329 2 58 22 147 95 174 142 58 100 52
241 -13 337 -52 75 -113 116 -223 147 -68 20 -151 19 -216 -1z"/>
</g>
</svg>
